<svg xmlns="http://www.w3.org/2000/svg" viewBox="0 0 240 240" width="240" height="240">
  <title>Nicolas Cabbage wearing a flowing cape</title>
  <rect width="240" height="240" fill="#E9E4F5"/>
  <path d="M60 110 Q20 170 26 232 H214 Q222 170 180 110 Z" fill="#C0392B" stroke="#1A1A2E" stroke-width="5" stroke-linejoin="round"/>
  <path d="M40 232 Q60 190 72 150 M200 232 Q182 190 170 150" stroke="#8E271D" stroke-width="4" fill="none"/>
  <g stroke="#1A1A2E" stroke-width="5" stroke-linejoin="round">
    <path d="M40 150 Q30 96 76 74 Q98 52 124 62 Q164 50 190 88 Q214 120 200 162 Q186 206 124 212 Q60 214 40 150 Z" fill="#5E9E4F"/>
    <path d="M58 150 Q54 104 92 90 Q120 74 150 90 Q184 108 182 150 Q176 192 124 196 Q66 196 58 150 Z" fill="#8CC474"/>
    <path d="M80 146 Q80 116 108 106 Q134 98 156 116 Q170 132 160 158 Q148 180 118 180 Q84 178 80 146 Z" fill="#B7DB94"/>
  </g>
  <g stroke="#4E8A43" stroke-width="3" fill="none" stroke-linecap="round">
    <path d="M60 140 Q82 128 90 104"/><path d="M178 136 Q160 126 152 100"/><path d="M122 196 Q122 186 122 178"/>
  </g>
  <g fill="#1A1A2E"><circle cx="104" cy="138" r="6"/><circle cx="140" cy="138" r="6"/></g>
  <path d="M108 160 Q122 170 136 160" stroke="#1A1A2E" stroke-width="4" fill="none" stroke-linecap="round"/>
  <circle cx="84" cy="190" r="8" fill="#E8B923" stroke="#1A1A2E" stroke-width="3"/><circle cx="162" cy="190" r="8" fill="#E8B923" stroke="#1A1A2E" stroke-width="3"/>
</svg>
