<svg xmlns="http://www.w3.org/2000/svg" viewBox="0 0 240 240" width="240" height="240">
  <title>Nicolas Cabbage wearing a motorcycle helmet</title>
  <rect width="240" height="240" fill="#EDEFF2"/>
  <g stroke="#1A1A2E" stroke-width="5" stroke-linejoin="round">
    <path d="M40 150 Q30 96 76 74 Q98 52 124 62 Q164 50 190 88 Q214 120 200 162 Q186 206 124 212 Q60 214 40 150 Z" fill="#5E9E4F"/>
    <path d="M58 150 Q54 104 92 90 Q120 74 150 90 Q184 108 182 150 Q176 192 124 196 Q66 196 58 150 Z" fill="#8CC474"/>
    <path d="M80 146 Q80 116 108 106 Q134 98 156 116 Q170 132 160 158 Q148 180 118 180 Q84 178 80 146 Z" fill="#B7DB94"/>
  </g>
  <g stroke="#4E8A43" stroke-width="3" fill="none" stroke-linecap="round">
    <path d="M60 140 Q82 128 90 104"/><path d="M178 136 Q160 126 152 100"/><path d="M122 196 Q122 186 122 178"/>
  </g>
  <g fill="#1A1A2E"><circle cx="104" cy="138" r="6"/><circle cx="140" cy="138" r="6"/></g>
  <path d="M108 160 Q122 170 136 160" stroke="#1A1A2E" stroke-width="4" fill="none" stroke-linecap="round"/>
  <g stroke="#1A1A2E" stroke-width="5" stroke-linejoin="round">
    <path d="M46 128 Q44 54 122 46 Q200 54 198 128 L176 126 Q174 90 122 84 Q70 90 68 126 Z" fill="#111827"/>
    <path d="M68 118 Q120 96 176 118 L172 128 Q122 112 72 128 Z" fill="#60A5FA" opacity=".75"/>
  </g>
  <path d="M60 80 Q90 56 120 54" stroke="#FFFFFF" stroke-width="5" stroke-linecap="round" fill="none" opacity=".5"/>
</svg>
