<svg xmlns="http://www.w3.org/2000/svg" viewBox="0 0 240 240" width="240" height="240">
  <title>Nicolas Cabbage wearing aviator sunglasses</title>
  <rect width="240" height="240" fill="#F3EFE3"/>
  <g stroke="#1A1A2E" stroke-width="5" stroke-linejoin="round">
    <path d="M40 150 Q30 96 76 74 Q98 52 124 62 Q164 50 190 88 Q214 120 200 162 Q186 206 124 212 Q60 214 40 150 Z" fill="#5E9E4F"/>
    <path d="M58 150 Q54 104 92 90 Q120 74 150 90 Q184 108 182 150 Q176 192 124 196 Q66 196 58 150 Z" fill="#8CC474"/>
    <path d="M80 146 Q80 116 108 106 Q134 98 156 116 Q170 132 160 158 Q148 180 118 180 Q84 178 80 146 Z" fill="#B7DB94"/>
  </g>
  <g stroke="#4E8A43" stroke-width="3" fill="none" stroke-linecap="round">
    <path d="M60 140 Q82 128 90 104"/><path d="M178 136 Q160 126 152 100"/><path d="M122 196 Q122 186 122 178"/>
  </g>
  <path d="M108 160 Q122 170 136 160" stroke="#1A1A2E" stroke-width="4" fill="none" stroke-linecap="round"/>
  <g stroke="#1A1A2E" stroke-width="4" stroke-linejoin="round">
    <path d="M84 128 H116 Q118 150 102 152 Q84 152 84 132 Z" fill="#1F2937"/>
    <path d="M128 128 H160 Q160 152 142 152 Q126 150 128 132 Z" fill="#1F2937"/>
    <path d="M116 132 Q122 126 128 132" fill="none"/>
    <path d="M84 130 L66 124 M160 130 L178 124" fill="none"/>
  </g>
  <path d="M92 134 L100 142" stroke="#FFFFFF" stroke-width="3" stroke-linecap="round" opacity=".7"/>
</svg>
